<svg xmlns="http://www.w3.org/2000/svg" width="800" height="520" viewBox="0 0 800 520" role="img" aria-label="Ilustración técnica LiftEngine"><defs><linearGradient id="bg" x2="1" y2="1"><stop stop-color="#fbfcfe"/><stop offset="1" stop-color="#dfe5ea"/></linearGradient></defs><rect width="800" height="520" rx="24" fill="url(#bg)"/><ellipse cx="400" cy="475" rx="260" ry="24" fill="#111820" opacity=".1"/><line x1="260" y1="80" x2="260" y2="440" stroke="#202830" stroke-width="18"/><line x1="540" y1="80" x2="540" y2="440" stroke="#202830" stroke-width="18"/><circle cx="400" cy="115" r="42" fill="#cfd5db"/><path d="M350 165q50-36 100 0l35 150q-85 54-170 0z" fill="#d9dde1" stroke="#7f8993" stroke-width="3"/><path d="M365 325l-35 145M435 325l35 145" stroke="#cfd5db" stroke-width="34" stroke-linecap="round"/><circle cx="352" cy="184" r="22" fill="#e94f48"/><circle cx="448" cy="184" r="22" fill="#e94f48"/><path d="M328 205l-14 65M472 205l14 65" stroke="#f47a4a" stroke-width="14"/><path d="M355 190L320 210L315 80M445 190L480 210L485 80" stroke="#d8dde2" stroke-width="22" fill="none" stroke-linecap="round"/><line x1="230" y1="80" x2="570" y2="80" stroke="#6f7983" stroke-width="10"/><circle cx="230" cy="80" r="36" fill="#171b20"/><circle cx="570" cy="80" r="36" fill="#171b20"/></svg>