<svg xmlns="http://www.w3.org/2000/svg" width="900" height="620" viewBox="0 0 900 620" role="img" aria-label="Press inclinado con mancuernas" data-style="anatomical-v2"><defs>
<linearGradient id="bg" x2="0" y2="1"><stop stop-color="#ffffff"/><stop offset="1" stop-color="#e9eef3"/></linearGradient>
<linearGradient id="body" x2="1" y2="1"><stop stop-color="#f7f8f9"/><stop offset=".55" stop-color="#d5dbe0"/><stop offset="1" stop-color="#b8c1c9"/></linearGradient>
<linearGradient id="metal" x2="1"><stop stop-color="#20272d"/><stop offset=".5" stop-color="#7e8993"/><stop offset="1" stop-color="#2a3239"/></linearGradient>
<filter id="shadow" x="-20%" y="-20%" width="140%" height="160%"><feDropShadow dx="0" dy="10" stdDeviation="10" flood-opacity=".17"/></filter>
</defs><title>Press inclinado con mancuernas</title><rect width="900" height="620" rx="28" fill="url(#bg)"/><ellipse cx="450" cy="552" rx="305" ry="30" fill="#6d7a85" opacity=".12"/><g class="equipment" filter="url(#shadow)"><path d="M270 455L470 205" stroke="#303840" stroke-width="52" stroke-linecap="round"/><path d="M300 470v65M505 290l70 210" stroke="#242b31" stroke-width="18"/><path d="M255 535h90M535 500h95" stroke="#242b31" stroke-width="18" stroke-linecap="round"/></g><g filter="url(#shadow)"><g class="anatomical-v2"><path d="M411.4940735417158 371.896667008897 L456.4940735417158 441.896667008897 Q475 430 493.5059264582842 418.103332991103 L448.5059264582842 348.103332991103 Q430 360 411.4940735417158 371.896667008897Z" fill="url(#body)" stroke="#58636e" stroke-width="2"/><circle cx="475" cy="430" r="20" fill="url(#body)" stroke="#58636e" stroke-width="2"/><path d="M459.4652036734556 423.0956460770914 L419.4652036734556 513.0956460770914 Q435 520 450.5347963265444 526.9043539229086 L490.5347963265444 436.9043539229086 Q475 430 459.4652036734556 423.0956460770914Z" fill="url(#body)" stroke="#58636e" stroke-width="2"/><path d="M482.82088619225334 343.7432910461973 L542.8208861922533 418.7432910461973 Q560 405 577.1791138077467 391.2567089538027 L517.1791138077467 316.2567089538027 Q500 330 482.82088619225334 343.7432910461973Z" fill="url(#body)" stroke="#58636e" stroke-width="2"/><circle cx="560" cy="405" r="20" fill="url(#body)" stroke="#58636e" stroke-width="2"/><path d="M546.3140507649928 415.08438364684747 L616.3140507649928 510.08438364684747 Q630 500 643.6859492350072 489.91561635315253 L573.6859492350072 394.91561635315253 Q560 405 546.3140507649928 415.08438364684747Z" fill="url(#body)" stroke="#58636e" stroke-width="2"/><path d="M365 275 Q437.5 213 455 235 L500 330 Q437.5 378 430 360 Z" fill="url(#body)" stroke="#58636e" stroke-width="3"/><path d="M430 360 Q437.5 355 500 330" fill="none" stroke="#8e989f" stroke-width="2" opacity=".8"/><path d="M437.5 245v110 M395.5 285q42 14 84 0 M403.5 316q34 12 68 0" fill="none" stroke="#9aa3aa" stroke-width="1.6" opacity=".8"/><path d="M376.08050925103544 263.45780286350475 L344.83050925103544 233.45780286350478 Q333.75 245 322.66949074896456 256.54219713649525 L353.91949074896456 286.54219713649525 Q365 275 376.08050925103544 263.45780286350475Z" fill="url(#body)" stroke="#58636e" stroke-width="2"/><circle cx="333.75" cy="245" r="16" fill="url(#body)" stroke="#58636e" stroke-width="2"/><path d="M346.623821702974 243.19314783116155 L336.623821702974 171.94314783116155 Q323.75 173.75 310.876178297026 175.55685216883845 L320.876178297026 246.80685216883845 Q333.75 245 346.623821702974 243.19314783116155Z" fill="url(#body)" stroke="#58636e" stroke-width="2"/><circle cx="323.75" cy="173.75" r="11" fill="url(#body)" stroke="#58636e" stroke-width="2"/><path d="M466.57368870629716 246.04761194692 L492.82368870629716 218.54761194692 Q481.25 207.5 469.67631129370284 196.45238805308 L443.42631129370284 223.95238805308 Q455 235 466.57368870629716 246.04761194692Z" fill="url(#body)" stroke="#58636e" stroke-width="2"/><circle cx="481.25" cy="207.5" r="16" fill="url(#body)" stroke="#58636e" stroke-width="2"/><path d="M493.83169258824756 210.77124007294435 L510.08169258824756 148.27124007294435 Q497.5 145 484.91830741175244 141.72875992705565 L468.66830741175244 204.22875992705565 Q481.25 207.5 493.83169258824756 210.77124007294435Z" fill="url(#body)" stroke="#58636e" stroke-width="2"/><circle cx="497.5" cy="145" r="11" fill="url(#body)" stroke="#58636e" stroke-width="2"/><rect x="397" y="231" width="26" height="34" rx="11" fill="url(#body)" stroke="#58636e" stroke-width="2"/><ellipse cx="335" cy="250" rx="29" ry="35" fill="url(#body)" stroke="#58636e" stroke-width="3"/><path d="M319 255q16 8 32 0" fill="none" stroke="#89939b" stroke-width="1.5"/><path d="M415 515q20 5 48 10q10 6 3 16h-50q-15-4-21-15z" fill="#252b31" stroke="#11161a" stroke-width="2"/><path d="M610 495q20 5 48 10q10 6 3 16h-50q-15-4-21-15z" fill="#252b31" stroke="#11161a" stroke-width="2"/><path d="M437.5 238C419.5 226,375 231,372 258C381 280,418.5 284,437.5 268Z" fill="#e94f48" opacity=".95"/><path d="M437.5 238C455.5 226,445 231,448 258C439 280,456.5 284,437.5 268Z" fill="#e94f48" opacity=".95"/><circle cx="365" cy="275" r="14" fill="#f47a4a" stroke="none" stroke-width="0"/><circle cx="455" cy="235" r="14" fill="#f47a4a" stroke="none" stroke-width="0"/><ellipse cx="349.375" cy="260" rx="10" ry="22" transform="rotate(-46.16913932790743 349.375 260)" fill="#f47a4a" opacity=".92"/><ellipse cx="468.125" cy="221.25" rx="10" ry="22" transform="rotate(43.66778014613036 468.125 221.25)" fill="#f47a4a" opacity=".92"/></g></g><g class="foreground-equipment"><g transform="translate(323.75 173.75) rotate(0)"><rect x="-26" y="-6" width="52" height="12" rx="5" fill="#69747d"/><rect x="-36" y="-17" width="13" height="34" rx="5" fill="#252b31"/><rect x="23" y="-17" width="13" height="34" rx="5" fill="#252b31"/></g><g transform="translate(497.5 145) rotate(0)"><rect x="-26" y="-6" width="52" height="12" rx="5" fill="#69747d"/><rect x="-36" y="-17" width="13" height="34" rx="5" fill="#252b31"/><rect x="23" y="-17" width="13" height="34" rx="5" fill="#252b31"/></g></g></svg>