<svg xmlns="http://www.w3.org/2000/svg" width="800" height="520" viewBox="0 0 800 520" role="img" aria-label="Ilustración técnica LiftEngine"><defs><linearGradient id="bg" x2="1" y2="1"><stop stop-color="#fbfcfe"/><stop offset="1" stop-color="#dfe5ea"/></linearGradient></defs><rect width="800" height="520" rx="24" fill="url(#bg)"/><ellipse cx="400" cy="475" rx="260" ry="24" fill="#111820" opacity=".1"/><circle cx="400" cy="115" r="42" fill="#cfd5db"/><path d="M350 165q50-36 100 0l35 150q-85 54-170 0z" fill="#d9dde1" stroke="#7f8993" stroke-width="3"/><path d="M365 325l-35 145M435 325l35 145" stroke="#cfd5db" stroke-width="34" stroke-linecap="round"/><circle cx="350" cy="184" r="24" fill="#e94f48"/><circle cx="450" cy="184" r="24" fill="#e94f48"/><path d="M350 190L210 205M450 190L590 205" stroke="#d8dde2" stroke-width="22" fill="none" stroke-linecap="round"/><circle cx="210" cy="205" r="22" fill="#1b2228"/><circle cx="590" cy="205" r="22" fill="#1b2228"/><circle cx="70" cy="70" r="32" fill="#ff5c57"/><path d="M53 53l34 34M87 53L53 87" stroke="#fff" stroke-width="8" stroke-linecap="round"/></svg>