<svg xmlns="http://www.w3.org/2000/svg" width="900" height="620" viewBox="0 0 900 620" role="img" aria-label="Mapa muscular del press banca con barra"><defs><linearGradient id="b" x2="1" y2="1"><stop stop-color="#111820"/><stop offset="1" stop-color="#071019"/></linearGradient><linearGradient id="s" x2="1" y2="1"><stop stop-color="#eef1f4"/><stop offset=".55" stop-color="#b9c0c8"/><stop offset="1" stop-color="#77818c"/></linearGradient></defs><rect width="900" height="620" rx="26" fill="url(#b)"/><g transform="translate(90 30)"><circle cx="190" cy="78" r="48" fill="url(#s)"/><path d="M145 128q45-30 90 0l42 195q-87 55-174 0z" fill="url(#s)"/><path d="M145 148q-42 40-58 154M235 148q42 40 58 154" fill="none" stroke="url(#s)" stroke-width="38" stroke-linecap="round"/><path d="M160 335l-24 195M220 335l24 195" fill="none" stroke="url(#s)" stroke-width="45" stroke-linecap="round"/><path d="M151 153q39-29 78 0q-3 57-39 70q-36-13-39-70z" fill="#e94f48" stroke="#b73530" stroke-width="3"/><circle cx="129" cy="157" r="24" fill="#f47a4a"/><circle cx="251" cy="157" r="24" fill="#f47a4a"/><path d="M104 181q-17 46-18 88M276 181q17 46 18 88" fill="none" stroke="#f47a4a" stroke-width="17" stroke-linecap="round"/><path d="M137 213q13 12 16 38M243 213q-13 12-16 38" stroke="#e8c958" stroke-width="8"/></g><g transform="translate(510 30)"><circle cx="120" cy="78" r="48" fill="url(#s)"/><path d="M75 128q45-30 90 0l42 195q-87 55-174 0z" fill="url(#s)"/><path d="M75 148q-42 40-58 154M165 148q42 40 58 154" fill="none" stroke="url(#s)" stroke-width="38" stroke-linecap="round"/><path d="M90 335l-24 195M150 335l24 195" fill="none" stroke="url(#s)" stroke-width="45" stroke-linecap="round"/><path d="M34 186q-14 42-15 81M206 186q14 42 15 81" fill="none" stroke="#f47a4a" stroke-width="17" stroke-linecap="round"/><circle cx="61" cy="157" r="23" fill="#f47a4a"/><circle cx="179" cy="157" r="23" fill="#f47a4a"/></g></svg>