<svg xmlns="http://www.w3.org/2000/svg" width="800" height="520" viewBox="0 0 800 520" role="img" aria-label="Ilustración técnica LiftEngine"><defs><linearGradient id="bg" x2="1" y2="1"><stop stop-color="#fbfcfe"/><stop offset="1" stop-color="#dfe5ea"/></linearGradient></defs><rect width="800" height="520" rx="24" fill="url(#bg)"/><ellipse cx="400" cy="475" rx="260" ry="24" fill="#111820" opacity=".1"/><path d="M285 385l190-210" stroke="#1d242b" stroke-width="34" stroke-linecap="round"/><path d="M330 405l-35 65M455 290l62 145" stroke="#252d35" stroke-width="16"/><circle cx="380" cy="150" r="38" fill="#d6dbe0"/><path d="M345 188q42-15 78 20l54 115q-70 28-130-20z" fill="#cbd2d8"/><path d="M410 320l65 125M355 320l10 135" stroke="#cbd2d8" stroke-width="32" stroke-linecap="round"/><path d="M338 220l-22 72M432 230l22 62" stroke="#e94f48" stroke-width="17" stroke-linecap="round"/><path d="M345 215L315 290L320 250M425 225L455 290L450 250" stroke="#d7dce1" stroke-width="22" fill="none" stroke-linecap="round"/><circle cx="320" cy="250" r="22" fill="#1c2329"/><circle cx="450" cy="250" r="22" fill="#1c2329"/></svg>